HIERARCHY
ROOT root
{
	OFFSET 0.000000 0.000000 0.000000
	CHANNELS 6 Xposition Yposition Zposition Zrotation Yrotation Xrotation
	JOINT lhip
	{
		OFFSET 0.058581 -0.082280 -0.017664
		CHANNELS 3 Zrotation Yrotation Xrotation
		JOINT lknee
		{
			OFFSET 0.043451 -0.386469 0.008037
			CHANNELS 3 Zrotation Yrotation Xrotation
			JOINT lankle
			{
				OFFSET -0.014790 -0.426874 -0.037428
				CHANNELS 3 Zrotation Yrotation Xrotation
				JOINT ltoe
				{
					OFFSET 0.041054 -0.060286 0.122042
					CHANNELS 3 Zrotation Yrotation Xrotation
					End Site
					{
						OFFSET 0.000000 0.000000 0.000000
					}
				}
			}
		}
	}
	JOINT rhip
	{
		OFFSET -0.060310 -0.090513 -0.013543
		CHANNELS 3 Zrotation Yrotation Xrotation
		JOINT rknee
		{
			OFFSET -0.043257 -0.383688 -0.004843
			CHANNELS 3 Zrotation Yrotation Xrotation
			JOINT rankle
			{
				OFFSET 0.019056 -0.420046 -0.034562
				CHANNELS 3 Zrotation Yrotation Xrotation
				JOINT rtoe
				{
					OFFSET -0.034840 -0.062106 0.130323
					CHANNELS 3 Zrotation Yrotation Xrotation
					End Site
					{
						OFFSET 0.000000 0.000000 0.000000
					}
				}
			}
		}
	}
	JOINT lowerback
	{
		OFFSET 0.004439 0.124404 -0.038385
		CHANNELS 3 Zrotation Yrotation Xrotation
		JOINT upperback
		{
			OFFSET 0.004488 0.137956 0.026820
			CHANNELS 3 Zrotation Yrotation Xrotation
			JOINT chest
			{
				OFFSET -0.002265 0.056032 0.002855
				CHANNELS 3 Zrotation Yrotation Xrotation
				JOINT lowerneck
				{
					OFFSET -0.013390 0.211636 -0.033468
					CHANNELS 3 Zrotation Yrotation Xrotation
					JOINT upperneck
					{
						OFFSET 0.010113 0.088937 0.050410
						CHANNELS 3 Zrotation Yrotation Xrotation
						End Site
						{
							OFFSET 0.000000 0.000000 0.000000
						}
					}
				}
				JOINT lclavicle
				{
					OFFSET 0.071702 0.114000 -0.018898
					CHANNELS 3 Zrotation Yrotation Xrotation
					JOINT lshoulder
					{
						OFFSET 0.122921 0.045205 -0.019046
						CHANNELS 3 Zrotation Yrotation Xrotation
						JOINT lelbow
						{
							OFFSET 0.255332 -0.015649 -0.022946
							CHANNELS 3 Zrotation Yrotation Xrotation
							JOINT lwrist
							{
								OFFSET 0.265709 0.012698 -0.007375
								CHANNELS 3 Zrotation Yrotation Xrotation
								End Site
								{
									OFFSET 0.000000 0.000000 0.000000
								}
							}
						}
					}
				}
				JOINT rclavicle
				{
					OFFSET -0.082954 0.112472 -0.023707
					CHANNELS 3 Zrotation Yrotation Xrotation
					JOINT rshoulder
					{
						OFFSET -0.113228 0.046853 -0.008472
						CHANNELS 3 Zrotation Yrotation Xrotation
						JOINT relbow
						{
							OFFSET -0.260127 -0.014369 -0.031269
							CHANNELS 3 Zrotation Yrotation Xrotation
							JOINT rwrist
							{
								OFFSET -0.269108 0.006794 -0.006027
								CHANNELS 3 Zrotation Yrotation Xrotation
								End Site
								{
									OFFSET 0.000000 0.000000 0.000000
								}
							}
						}
					}
				}
			}
		}
	}
}
MOTION
Frames: 5
Frame Time: 0.033333
0.043427 1.108966 0.779686 -5.125810 1.960844 51.834886 16.308786 12.381849 -26.491550 -8.575071 8.877515 56.308531 -7.203281 -5.306008 -1.301526 0.000000 -0.000000 0.000000 -9.141965 -2.033968 -50.486471 -2.554640 -10.373018 92.005418 6.371524 1.890745 6.361967 0.000000 -0.000000 0.000000 -3.848423 -4.229420 55.275363 6.098516 -4.926752 16.037558 1.505201 0.065409 -6.631462 0.156792 0.865969 0.972228 11.392353 -7.846389 7.715071 -6.299258 -29.686441 -6.757482 -36.737205 -26.210129 6.924440 34.603741 -69.494520 -17.331303 8.000445 -6.364275 -7.160590 13.821013 32.491168 2.672456 56.029971 25.981852 17.380214 -89.056822 55.189981 -73.343119 19.952627 7.508348 -13.725038 
0.043817 1.108990 0.779532 -4.948192 1.878031 51.981875 16.229270 11.721560 -26.562753 -9.131908 8.995461 56.005696 -6.450734 -4.589409 -1.433797 0.000000 -0.000000 0.000000 -9.215046 -2.387524 -50.723934 -2.216455 -10.210728 91.890012 6.693689 1.356909 6.097468 0.000000 -0.000000 0.000000 -3.937286 -4.241881 55.027305 6.062894 -4.744078 15.745981 1.597168 0.170087 -5.949280 -0.166968 -0.351056 0.919374 12.148246 -7.305900 7.241237 -6.718693 -27.955903 -7.102123 -38.473655 -27.390916 8.571658 43.774010 -71.404886 -35.327117 14.103106 -0.575872 -18.579925 13.659030 31.525719 1.751195 56.432614 25.633341 19.393070 -89.710467 54.107662 -76.492947 18.672428 5.847521 -10.689056 
0.043728 1.109031 0.779573 -4.768844 1.885260 52.091690 16.358527 11.008661 -26.545034 -9.504600 9.383716 55.689238 -5.808261 -4.188917 -1.430312 0.000000 -0.000000 0.000000 -9.233437 -2.645974 -50.794597 -1.889813 -10.138141 91.743627 6.385266 1.222318 6.492379 0.000000 -0.000000 0.000000 -4.039106 -4.148201 54.874708 6.186886 -4.597814 15.485562 1.851676 0.365063 -5.560886 -0.735906 -1.327809 1.167594 12.886048 -6.935907 7.175751 -6.633705 -26.904740 -7.106211 -40.549114 -28.103150 10.532210 58.909167 -72.847309 -58.360028 17.275836 4.490904 -27.437368 13.261999 30.782410 1.157963 56.955354 25.301877 20.946408 -90.435470 53.012430 -79.535681 17.924387 4.418580 -7.745786 
0.043627 1.109222 0.779289 -4.691352 1.894245 52.142930 16.662455 10.310349 -26.415434 -9.644335 10.094491 55.401187 -5.431420 -4.093427 -1.508103 0.000000 -0.000000 0.000000 -9.301425 -2.636698 -50.836368 -1.879201 -10.197948 91.667167 6.236666 1.317904 6.649586 0.000000 -0.000000 0.000000 -4.182566 -4.041764 54.688465 6.343085 -4.445658 15.503403 2.028029 0.587140 -5.343443 -0.949756 -1.769847 1.257913 13.128329 -7.036232 7.321968 -6.253543 -26.073237 -6.940051 -42.467827 -28.628130 12.848463 77.509341 -73.189809 -83.837335 16.967213 6.428485 -36.505922 12.846448 30.136168 0.720496 57.445738 25.295155 22.413213 -91.102212 51.853540 -82.080581 18.326931 3.332149 -5.138448 
0.043753 1.109481 0.779220 -4.560601 1.927151 52.093829 16.824138 9.787300 -26.221469 -9.668683 10.555754 55.233072 -5.357397 -4.237199 -1.703708 0.000000 -0.000000 0.000000 -9.394875 -2.709841 -50.716731 -2.067148 -10.216896 91.575101 6.536217 1.431529 6.349962 0.000000 -0.000000 0.000000 -4.233381 -4.047409 54.836212 6.434409 -4.363326 15.288756 2.061311 0.705600 -5.231138 -0.874457 -1.876962 1.350233 13.077143 -7.270420 7.620420 -6.238982 -25.223248 -6.669413 -43.690650 -29.139972 14.679211 94.253398 -72.871846 -104.036464 15.137245 5.734690 -43.818009 12.766776 29.625162 0.553787 57.691422 25.516985 23.360957 -91.837848 51.253749 -83.632300 18.666563 2.836800 -3.787445 
